<?xml version="1.0" encoding="utf-8" ?><svg xmlns="http://www.w3.org/2000/svg" xmlns:xlink="http://www.w3.org/1999/xlink" width="1254" height="1254" viewBox="0 0 1254 1254"><path fill="#084E9D" d="M237.501 676.853C311.431 672.489 402.585 694.868 458.535 744.701C513.488 793.646 536.974 847.189 542.138 919.157C539.399 913.104 537.127 906.797 534.217 900.568C525.507 881.712 514.299 864.115 500.896 848.249C490.874 836.138 479.685 825.041 467.492 815.118C385.831 747.672 263.591 727.583 160.718 737.388C150.051 723.917 136.795 707.512 126.937 693.708C166.199 683.171 197.237 679.007 237.501 676.853Z"/><path fill="#084E9D" d="M985.875 676.858C991.125 676.238 1002.59 676.545 1007.99 676.551C1048.63 676.599 1087.88 683.59 1127.17 693.659C1115.8 708.079 1104.56 722.602 1093.45 737.226C1083.79 735.855 1067.02 735.005 1057.24 734.842C955.472 733.153 844.965 758.312 769.437 830.101C741.006 857.143 726.576 884.565 711.771 920.287C713.371 904.922 714.867 889.372 717.971 874.231C726.281 834.878 744.657 798.354 771.304 768.227C826.719 705.624 904.81 681.816 985.875 676.858Z"/><path fill="#084E9D" d="M449.428 490.758L810.644 490.737C811.04 507.742 810.669 526.188 810.666 543.376L810.665 645.821C800.231 645.596 789.795 645.57 779.36 645.743L779.48 521.751L690.954 521.916C691.205 525.811 691.005 530.428 690.965 534.368C690.591 571.409 691.358 608.494 691.034 645.526L685.322 645.718L674.67 645.832L674.746 522.043C663.753 521.63 651.167 521.916 640.08 521.919L579.386 522.081L579.396 645.734C574.833 645.414 567.721 645.653 562.971 645.665C562.34 605.246 562.737 562.326 562.996 521.812L474.545 521.843L474.556 645.794C464.497 645.338 453.42 645.592 443.273 645.638L443.27 545.174C443.258 529.337 442.564 506.905 443.437 491.485C444.76 490.508 447.595 490.773 449.428 490.758Z"/><path fill="#5394D4" d="M186.438 752.241C292.78 749 416.331 782.233 491.84 861.594C511.482 882.238 529.695 909.485 540.009 936.091C525.119 914.085 510.954 900.313 490.136 884.047C416.902 828.707 307.5 804.44 217.427 821.064C200.627 824.165 185.049 829.233 169.128 835.288C163.213 828.99 153.961 816.596 147.978 809.302C134.241 792.604 120.343 776.038 106.285 759.609C132.782 755.165 159.574 752.702 186.438 752.241Z"/><path fill="#5394D4" d="M1044.84 752.245C1073.61 750.181 1119.15 755.061 1147.27 759.611C1139.92 768.981 1130.33 779.771 1122.52 789.089C1109.74 804.311 1097.16 819.703 1084.79 835.261C1070.14 829.867 1057.76 825.625 1042.44 822.374C953.031 803.399 852.023 826.33 775.815 875.159C754.231 889.108 735.383 906.891 720.203 927.627C719.316 928.814 715.852 933.9 714.863 934.044C724.176 910.661 744.374 880.74 761.544 862.305C833.962 784.549 942.143 756.452 1044.84 752.245Z"/><path fill="#084E9D" d="M546.885 427.703L754.577 428.019C759.072 430.795 769.449 439.466 774.069 443.145L809.849 471.438L708.13 471.446L443.543 471.442C460.019 457.376 481.027 440.918 498.329 427.927C513.953 427.456 531.139 427.751 546.885 427.703Z"/><path fill="#5394D4" d="M699.051 727.686C699.708 728.193 699.818 728.241 700.465 728.952C707.259 736.406 710.924 749.664 712.252 759.42C723.089 838.978 600.243 881.263 597.063 942.345C596.034 962.113 607.805 976.63 620.214 990.549C620.387 1002.46 620.249 1014.77 620.256 1026.71C615.204 1023.15 610.609 1019.08 605.914 1015.06C605.464 1014.68 605.017 1014.28 604.572 1013.89C568.245 981.777 540.089 938.931 572.658 892.238C599.923 853.147 644.42 827.693 675.669 791.967C694.249 770.725 700.773 755.434 699.051 727.686Z"/><path fill="#084E9D" d="M197.665 497.767C199.296 499.804 198.462 546.764 198.451 552.258L198.487 647.713C182.475 648.407 166.038 650.56 150.081 652.432C148.748 650.564 149.336 613.488 149.34 607.812L149.279 520.955C165.463 513.334 181.495 505.303 197.665 497.767Z"/><path fill="#084E9D" d="M1055.59 497.316C1065.18 500.405 1094.62 515.886 1104.68 520.956L1104.62 652.727C1088.46 649.919 1071.87 648.538 1055.52 647.438L1055.59 497.316Z"/><path fill="#5394D4" d="M610.022 688.672L644.745 688.683C645.022 700.106 644.774 712.534 644.774 724.038C653.955 723.289 670.828 723.84 680.505 723.868C680.901 734.597 680.334 747.428 680.506 758.647L644.73 758.61C644.906 770.293 644.725 782.421 644.711 794.14C633.918 793.684 620.965 794.032 610.012 794.039C609.86 782.345 609.994 770.409 610.004 758.695L574.094 758.707C574.061 747.236 574.164 735.446 573.812 724.005C582.39 723.936 601.806 723.424 609.84 724.224C609.697 712.373 609.758 700.521 610.022 688.672Z"/><path fill="#084E9D" d="M247.656 408.662C267.764 407.814 291.216 408.607 312.331 408.552C334.572 408.495 363.531 407.494 385.386 409.741C388.454 410.056 405.08 419.631 409.011 421.844L441.65 440.262L384.987 440.146C321.312 441.315 255.403 439.732 191.505 440.15C207.339 431.392 231.802 415.604 247.656 408.662Z"/><path fill="#084E9D" d="M869.601 408.519C887.239 407.963 1000.2 407.318 1008.79 410.263C1016.15 412.784 1023.35 417.625 1030.12 421.433C1040.95 427.524 1051.81 433.558 1062.7 439.533L1006.74 440.213L812.286 440.275C831.575 430.44 850.793 419.28 869.601 408.519Z"/><path fill="#084E9D" d="M594.797 554.545C616.043 554.709 637.289 554.707 658.534 554.541C659.702 573.787 658.427 596.3 658.895 615.735C659.004 620.273 659.068 642.432 658.39 645.667C637.954 645.517 615.201 646.228 595.18 645.52C594.239 637.618 594.686 621.117 594.691 612.687L594.797 554.545Z"/><path fill="#084E9D" d="M665.409 872.331C667.949 874.24 670.998 877.455 673.051 879.864C687.314 896.601 697.792 917.165 695.893 939.685C692.972 974.303 664.971 1000.92 640.125 1022.12L633.753 1027.42C634.119 1016.1 634.248 1001.77 633.823 990.584C665.01 956.42 665.792 935.719 636.675 900.039C645.089 891.313 656.517 880.968 665.409 872.331Z"/><path fill="#5394D4" d="M833.898 453.228C861.473 453.607 889.051 453.703 916.628 453.515L1037.28 453.554C1037.42 460.704 1037.24 468.164 1037.17 475.337C1014.36 474.765 989.547 475.207 966.591 475.207L833.899 475.251C833.768 467.91 833.768 460.568 833.898 453.228Z"/><path fill="#5394D4" d="M217.031 453.46C242.672 454.002 269.017 453.627 294.709 453.617L420.336 453.505C420.542 460.27 420.282 468.455 420.235 475.325C397.556 474.441 368.232 475.243 345.016 475.244C302.365 475.114 259.713 475.204 217.063 475.513C216.819 468.245 216.977 460.749 217.031 453.46Z"/><path fill="#084E9D" d="M500.875 554.511C514.91 555.111 532.972 554.586 547.316 554.578L547.361 645.517L500.906 645.619C500.275 616.016 500.853 584.248 500.875 554.511Z"/><path fill="#084E9D" d="M706.664 554.742L753.074 554.64C753.37 584.935 753.365 615.233 753.059 645.528C737.621 645.463 722.183 645.52 706.747 645.7C706.411 615.581 706.676 584.908 706.664 554.742Z"/><path fill="#5394D4" d="M390.66 356.456L550.512 356.466C551.268 375.344 550.618 398.71 550.599 417.814L538.335 417.716L538.277 401.519L538.267 377.881L402.773 377.953L402.727 405.969C398.218 403.55 394.953 401.716 390.693 398.918L390.66 356.456Z"/><path fill="#5394D4" d="M704.626 356.559C757.512 355.957 811.561 356.45 864.529 356.455L864.53 399.012C860.687 401.193 856.778 403.254 852.808 405.193C852.765 401.505 853.07 379.886 852.126 377.839C807.488 377.317 761.955 377.642 717.28 377.766C717.823 389.272 717.28 406.171 717.22 418.038C713.058 417.954 708.894 417.942 704.731 418.004L704.626 356.559Z"/><path fill="#084E9D" d="M555.021 727.856C556.284 730.268 554.88 740.664 555.319 744.916C558.97 780.269 592.555 806.324 616.163 827.819L596.495 845.354L588.439 853.212C554.476 817.62 521.829 776.122 555.021 727.856Z"/><path fill="#5394D4" d="M399.478 575.87L407.23 576.02L407.261 645.567L375.19 645.659L365.664 645.74L365.714 576.142C376.917 575.905 388.197 576.115 399.478 575.87Z"/><path fill="#5394D4" d="M846.66 576.12L887.585 576.096L887.832 620.896C887.87 627.501 888.227 639.499 887.538 645.676C874.11 645.415 860.137 645.683 846.671 645.76C846.239 623.028 846.675 598.987 846.66 576.12Z"/><path fill="#5394D4" d="M365.517 500.243L407.324 500.177C407.396 522.937 407.288 545.697 407 568.455L365.602 568.46L365.517 500.243Z"/><path fill="#5394D4" d="M846.556 500.237L887.754 500.399C887.778 519.886 888.724 549.922 887.552 568.52L846.509 568.599L846.556 500.237Z"/><path fill="#5394D4" d="M228.563 560.206L247.353 560.108C247.457 588.674 247.418 617.241 247.234 645.807C241.692 645.498 234.217 645.77 228.536 645.81L228.563 560.206Z"/><path fill="#5394D4" d="M1006.55 560.279L1025.34 560.251C1025.68 569.216 1025.34 580.567 1025.32 589.708L1025.21 645.477L1006.55 645.709L1006.55 560.279Z"/><path fill="#5394D4" d="M974.619 560.188L993.168 560.208L993.203 645.546L974.607 645.782L974.619 560.188Z"/><path fill="#5394D4" d="M276.493 559.951C278.686 559.996 277.878 559.554 279.219 560.821C279.737 569.508 279.356 581.339 279.337 590.391L279.207 645.775L263.75 645.817L261.497 645.766C260.333 643.787 260.835 568.336 260.839 560.162L276.493 559.951Z"/><path fill="#5394D4" d="M911.453 560.145C917.638 560.033 923.825 560.045 930.01 560.182C929.868 582.82 930.116 620.833 929.499 644.773C929.222 645.058 928.946 645.342 928.67 645.626L911.517 645.801C910.757 618.363 911.39 587.794 911.453 560.145Z"/><path fill="#5394D4" d="M323.892 560.203L342.344 560.105L342.435 645.452L323.982 645.56L323.892 560.203Z"/><path fill="#5394D4" d="M943.018 560.207L961.522 560.173C961.539 587.887 962.343 618.261 961.46 645.702C955.347 645.542 949.445 645.682 943.342 645.806C942.558 617.727 943.6 588.55 943.018 560.207Z"/><path fill="#5394D4" d="M292.741 560.272L311.134 560.111C311.368 564.227 311.342 568.745 311.268 572.895C310.84 596.962 311.715 621.43 310.777 645.458L292.962 645.542C292.714 617.119 292.64 588.696 292.741 560.272Z"/><path fill="#5394D4" d="M228.497 500.236L247.319 500.287L247.279 554.19L228.449 554.449C228.744 536.575 228.511 518.15 228.497 500.236Z"/><path fill="#5394D4" d="M1006.38 500.313C1012.61 500.262 1018.83 500.295 1025.06 500.41L1025.11 554.163L1006.5 554.22C1006.62 536.251 1006.58 518.281 1006.38 500.313Z"/><path fill="#5394D4" d="M943.16 500.392L961.5 500.337C961.641 515.728 962.463 539.42 961.376 554.256C955.416 554.199 949.287 554.299 943.311 554.326C943.391 536.348 943.341 518.37 943.16 500.392Z"/><path fill="#5394D4" d="M974.766 500.29L993.19 500.31L993.162 554.184C987.012 554.35 980.859 554.431 974.706 554.427C975.082 536.785 974.763 518.021 974.766 500.29Z"/><path fill="#5394D4" d="M911.612 500.439C916.757 500.094 924.711 500.333 930.066 500.322C929.785 518.127 929.943 536.392 929.894 554.224L911.52 554.341L911.612 500.439Z"/><path fill="#5394D4" d="M323.875 500.295L342.275 500.233C342.485 518.032 342.226 536.345 342.19 554.185L323.934 554.261C324.115 536.368 323.919 518.208 323.875 500.295Z"/><path fill="#5394D4" d="M292.88 500.368L311.077 500.317C311.283 518.289 311.238 536.263 310.94 554.233C304.96 554.234 298.826 554.368 292.835 554.437C293.78 539.516 292.977 515.776 292.88 500.368Z"/><path fill="#5394D4" d="M260.957 500.428C266.869 500.292 273.2 500.381 279.145 500.367L279.139 554.279L260.946 554.489L260.957 500.428Z"/><path fill="#5394D4" d="M413.963 393.115L424.45 393.033C424.581 399.999 424.551 406.966 424.361 413.931L414.004 413.899L413.963 393.115Z"/><path fill="#5394D4" d="M434.678 393.199L445.1 393.233L445.163 413.96L434.617 413.97C434.484 407.047 434.504 400.121 434.678 393.199Z"/><path fill="#5394D4" d="M476.468 393.216L486.661 393.18L486.647 413.866L476.383 413.867L476.468 393.216Z"/><path fill="#5394D4" d="M455.694 393.228L465.939 393.181C465.926 400.113 465.948 407.044 466.005 413.976L455.562 413.984C455.822 407.292 455.685 399.968 455.694 393.228Z"/><path fill="#5394D4" d="M729.336 393.213L739.416 393.224L739.535 413.933L729.379 413.979L729.336 393.213Z"/><path fill="#5394D4" d="M831.548 393.216L841.729 393.166C841.779 400.037 841.747 406.907 841.633 413.777L831.502 413.847L831.548 393.216Z"/><path fill="#5394D4" d="M811.834 393.437C814.968 393.334 818.193 393.334 821.336 393.295C821.606 399.638 821.447 407.451 821.471 413.905L811.296 413.825C811.212 409.335 810.744 396.991 811.834 393.437Z"/><path fill="#5394D4" d="M497.116 393.23L506.994 393.228L507.071 414.049L497.164 413.97L497.116 393.23Z"/><path fill="#5394D4" d="M790.819 393.355L800.542 393.292C800.55 397.008 800.884 410.812 800.184 413.822L790.566 413.869C790.521 409.296 790.217 397.552 790.819 393.355Z"/><path fill="#5394D4" d="M749.495 393.212L759.232 393.286C759.355 400.072 759.285 407.117 759.308 413.924L749.479 413.917L749.495 393.212Z"/><path fill="#5394D4" d="M770.378 393.448C773.314 393.323 776.605 393.406 779.571 393.413C779.863 400.15 779.676 407.139 779.599 413.901L769.86 413.915C769.796 410.02 769.334 396.083 770.378 393.448Z"/><path fill="#5394D4" d="M517.021 393.258L526.622 393.174L526.662 413.998L516.974 413.992L517.021 393.258Z"/></svg>