<?xml version="1.0" encoding="utf-8" ?><svg xmlns="http://www.w3.org/2000/svg" xmlns:xlink="http://www.w3.org/1999/xlink" width="570" height="570" viewBox="0 0 570 570"><defs><linearGradient id="gradient_0" gradientUnits="userSpaceOnUse" x1="-8.7301626" y1="313.02176" x2="575.72864" y2="257.47629"><stop offset="0" stop-color="#1654F3"/><stop offset="1" stop-color="#07B0FF"/></linearGradient></defs><path fill="url(#gradient_0)" d="M136.357 8.76132L349.622 8.82762L405.672 8.82185C423.563 8.8097 441.643 8.07405 459.218 11.6778C520.308 24.2048 564.432 77.7267 564.642 140.234C564.724 164.755 564.653 189.34 564.651 213.872L564.688 345.261L564.687 405.178C564.693 422.005 565.602 439.291 562.226 455.717C557.384 480.179 545.666 502.753 528.447 520.79C502.592 547.056 467.348 561.954 430.492 562.195L429.532 562.217C408.866 562.663 387.006 562.29 366.269 562.31L227.903 562.245L162.762 562.199C145.756 562.181 129.729 563.035 113.012 559.914C49.3356 548.024 2.46651 492.429 2.28152 427.541C2.22172 406.565 2.23214 385.235 2.22987 364.11L2.22042 241.525L2.2142 176.952C2.21491 155.614 1.16422 134.369 5.75907 113.445C10.9745 89.6772 22.6457 67.8091 39.4883 50.247C63.4246 25.4936 91.7041 11.917 126.266 9.01197C129.207 8.76473 133.332 8.80887 136.357 8.76132ZM450.965 206.642C454.447 219.356 455.201 227.042 456.457 240.129C459.921 276.245 454.397 308.498 436.313 340.134C426.981 356.245 414.449 370.273 399.49 381.356C395.728 384.167 391.721 387.148 387.292 388.713C390.449 384.4 393.383 379.929 396.082 375.316C422.523 330.717 421.751 277.663 396.972 232.353C393.097 225.269 388.021 218.444 383.365 211.848L383.474 212.21C384.373 215.095 385.957 217.733 387.097 220.51C399.32 250.063 402.182 283.506 390.396 313.684C377.81 345.913 351.689 371.455 318.689 382.292C313.072 384.137 304.496 386.33 298.738 386.001C321.845 374.429 339.287 354.001 347.094 329.366C353.794 308.838 354.256 286.783 348.419 265.993C347.413 262.286 345.931 256.815 344.288 253.466C346.869 281.989 343.182 307.771 324.521 330.481C291.045 371.22 229.775 373.998 190.704 339.92C167.089 319.323 152.306 288.022 149.672 257.075C146.218 219.132 158.284 181.409 183.115 152.513C208.233 122.804 241.302 106.885 279.843 103.601C282.277 103.394 292.411 103.378 293.655 102.617C290.452 101.241 269.347 101.234 264.874 101.177C223.42 102.339 181.221 121.816 152.795 151.888C117.896 188.811 99.5778 234.457 101.17 285.477C102.743 334.416 123.814 380.696 159.694 414.015C191.328 443.104 232.235 460.059 275.172 461.878C327.065 464.234 380.109 443.656 416.119 406.455C463.763 357.235 477.125 285.77 456.337 221.423C454.929 217.067 453.88 211.122 451.396 207.301L451.131 206.887C451.075 206.805 451.02 206.723 450.965 206.642ZM327.954 119.905C328.648 120.86 334.52 125.527 336.045 126.901C339.457 129.957 342.827 133.059 346.155 136.205C348.839 138.773 352.915 142.824 355.874 145.01C348.501 149.152 341.181 153.388 333.916 157.716C330.516 159.701 326.582 161.776 323.324 163.834C329.63 163.582 336.048 162.727 342.426 162.462C350.91 161.946 359.436 162.535 367.928 162.513C369.221 162.509 372.034 162.765 372.889 163.697C376.673 167.819 380.017 172.714 383.441 177.154L403.162 202.354C402.254 199.299 401.1 194.59 400.65 191.417C399.176 182.484 397.821 174.225 395.898 165.38C397.919 163.836 426.282 169.763 430.053 170.867L415.063 160.696C408.6 156.381 397.138 149.66 392.086 144.159C390.119 142.018 384.656 130.95 382.978 127.683C380.603 129.568 373.123 134.569 370.231 133.897C366.674 133.071 361.924 131.35 358.329 130.134L335.4 122.411C334.435 122.084 328.491 119.937 327.954 119.905Z"/></svg>